<svg height="321" viewBox="0 0 320 321" width="320" xmlns="http://www.w3.org/2000/svg"><g fill="none" transform="translate(.000036 .020571)"><path d="m-.00003627 160.477936c0-88.090278 71.41127977-159.50155775 159.50155727-159.50155775h.996885c88.090278 0 159.501558 71.41127975 159.501558 159.50155775s-71.41128 159.501558-159.501558 159.501558h-.996885c-88.0902775 0-159.50155727-71.41128-159.50155727-159.501558z" fill="#343434"/><path d="m218.595864 65.0560077c.576125 1.0325244.835381 2.1224113.777769 3.2696607-.057613 1.1472493-.432094 2.1797737-1.123444 3.0975732l-47.876001 68.8349604v44.226462c0 1.60615-.604932 3.01153-1.814794 4.216142-1.209863 1.204612-2.62137 1.806917-4.23452 1.806917h-13.308492c-1.728375 0-3.197494-.602305-4.407357-1.806917s-1.814794-2.609992-1.814794-4.216142v-50.421608c0-1.14725.403287-2.294499 1.209863-3.441748l46.147625-66.2536499c.576125-.8030745 1.296282-1.4340617 2.160469-1.8929614.864188-.4588997 1.814795-.6883496 2.85182-.6883496h16.073892c1.15225 0 2.218082.2868123 3.197495.860437.979412.5736247 1.699569 1.3766992 2.160469 2.4092236zm-74.925077 40.2684523c-.979413.573624-2.045245.860437-3.197495.860437h-16.073892c-2.074051 0-3.802426-.860437-5.185126-2.581311l-22.4688818-32.1803444c-.5761251-.9177995-.892994-1.9503239-.9506065-3.0975732-.0576125-1.1472494.1440313-2.2371363.6049314-3.2696607.4609002-1.0325244 1.1810566-1.8355989 2.1604694-2.4092236s2.0452445-.860437 3.1974945-.860437h16.24673c1.958825 0 3.629588.860437 5.012289 2.581311l22.468881 32.1803441c.576125.9177995.892994 1.9503239.950606 3.0975732.057613 1.1472496-.144031 2.2371366-.604931 3.2696606s-1.181057 1.835599-2.160469 2.409224zm-1.23976 127.03507c1.728375 0 3.168688.602306 4.320939 1.806917 1.15225 1.204612 1.728375 2.667355 1.728375 4.388229v12.56238c0 1.60615-.576125 3.01153-1.728375 4.216142-1.152251 1.204612-2.592564 1.806918-4.320939 1.806918h-85.3817491c-1.6131504 0-3.0246571-.602306-4.2345199-1.806918s-1.8147943-2.609992-1.8147943-4.216142v-12.56238c0-1.720874.6049315-3.183617 1.8147943-4.388229 1.2098628-1.204611 2.6213695-1.806917 4.2345199-1.806917zm-85.3817491-26.673548c-1.6131504 0-3.0246571-.602305-4.2345199-1.806917s-1.8147943-2.609993-1.8147943-4.216142v-12.906555c0-1.606149.6049315-3.011529 1.8147943-4.216141s2.6213695-1.806918 4.2345199-1.806918h77.6040591c1.728376 0 3.197495.602306 4.407358 1.806918s1.814794 2.609992 1.814794 4.216141v12.906555c0 1.606149-.604931 3.01153-1.814794 4.216142s-2.678982 1.806917-4.407358 1.806917zm85.3817491-76.234718c1.728375 0 3.168688.602305 4.320939 1.806917 1.15225 1.204612 1.728375 2.609993 1.728375 4.216142v12.56238c0 1.720874-.576125 3.183617-1.728375 4.388229-1.152251 1.204611-2.592564 1.806917-4.320939 1.806917h-85.3817491c-1.6131504 0-3.0246571-.602306-4.2345199-1.806917-1.2098628-1.204612-1.8147943-2.667355-1.8147943-4.388229v-12.56238c0-1.606149.6049315-3.01153 1.8147943-4.216142s2.6213695-1.806917 4.2345199-1.806917zm125.324506 118.912394c.691351.9178 1.094638 1.950324 1.209863 3.097573.115225 1.14725-.057612 2.237136-.518512 3.269661-.460901 1.032524-1.209863 1.86428-2.246889 2.495267-1.037025.630987-2.131663.946481-3.283913.946481h-16.765242c-2.074051 0-3.744814-.803075-5.012289-2.409224l-33.011972-43.538112-33.011972 43.538112c-1.267475 1.606149-2.880625 2.409224-4.839451 2.409224h-16.93808c-1.15225 0-2.218082-.286812-3.197494-.860437-.979413-.573625-1.69957-1.376699-2.16047-2.409224-1.15225-2.409223-.979413-4.588997.518513-6.539321l89.52985-116.503171c1.267475-1.606149 2.880626-2.409223 4.839451-2.409223h16.765243c1.15225 0 2.218081.315493 3.197494.94648s1.757182 1.462743 2.333307 2.495268c.576125 1.032524.806575 2.122411.69135 3.26966-.115225 1.14725-.576125 2.179774-1.3827 3.097573l-40.616824 52.658745zm-91.085388-76.923068-24.888607-32.180345c-.806575-.917799-1.267475-1.950323-1.3827-3.097573-.115225-1.147249.115225-2.237136.69135-3.26966.576125-1.032525 1.353894-1.864281 2.333307-2.495268s2.045244-.94648 3.197495-.94648h16.765242c.9218 0 1.8436.200768 2.765401.602305.9218.401538 1.61315 1.003844 2.07405 1.806918l24.370095 32.180344c1.61315 1.950324 1.8436 4.130098.69135 6.539322-.4609 1.032524-1.181057 1.835598-2.16047 2.409223-.979412.573625-2.102856.860437-3.370332.860437h-16.246729c-.921801 0-1.843601-.200768-2.765401-.602306-.9218-.401537-1.613151-1.003843-2.074051-1.806917z" fill="#fff"/></g></svg>